<?xml version="1.0" encoding="UTF-8"?>
<svg id="Calque_2_-_copie_4" data-name="Calque 2 - copie 4" xmlns="http://www.w3.org/2000/svg" viewBox="0 0 1481.47 780.28">
  <defs>
    <style>
      .cls-1 {
        fill: #8fc056;
      }

      .cls-2 {
        fill: #e58240;
      }

      .cls-3 {
        fill: #935a9e;
      }

      .cls-4 {
        fill: #db4759;
      }

      .cls-5 {
        fill: #1e1e1c;
      }

      .cls-6 {
        fill: #4b4b99;
      }

      .cls-7 {
        fill: #38b8d6;
      }

      .cls-8 {
        fill: #fad154;
      }
    </style>
  </defs>
  <path class="cls-5" d="M684.53,304.19h-136.1c3.65,27.86,26.03,51.15,63.48,51.15,12.33,0,29.23-3.65,42.93-10.96,3.65-1.83,7.76-2.74,11.42-2.74,12.33,0,24.66,9.59,24.66,23.3,0,26.03-56.18,36.54-85.41,36.54-67.14,0-117.83-45.22-117.83-116.01,0-63.94,47.04-115.55,114.18-115.55,49.78,0,87.69,28.77,103.22,74.45,3.19,10.04,6.39,22.38,6.39,33.34,0,14.16-11.87,26.49-26.94,26.49M601.86,216.04c-36.08,0-51.61,26.95-54.35,48.87h108.7c-1.37-21.01-15.99-48.87-54.35-48.87"/>
  <path class="cls-5" d="M878.85,401.47c-26.03,0-50.24-10.96-68.05-33.8v86.78c0,15.53-12.79,28.32-29.23,28.32s-28.77-12.79-28.77-28.32v-253.48c0-15.53,12.79-28.32,29.69-28.32,15.53,0,28.32,12.79,28.32,28.32v2.29c16.9-21.47,41.1-33.34,68.05-33.34,56.63,0,97.74,42.02,97.74,115.55s-41.1,116.01-97.74,116.01M860.58,221.52c-18.72,0-40.19,10.96-49.78,25.12v78.1c9.59,13.7,31.06,25.12,49.78,25.12,33.34,0,55.72-26.03,55.72-64.4s-22.38-63.94-55.72-63.94"/>
  <path class="cls-5" d="M1100.26,401.47c-28.77,0-74.9-9.59-88.6-29.23-2.74-3.65-4.11-7.76-4.11-12.33,0-13.7,11.87-24.21,24.21-24.21,4.11,0,8.22.91,11.87,3.2,17.35,10.05,40.19,17.81,59.38,17.81,25.11,0,36.99-10.04,36.99-23.75,0-36.54-131.07-6.85-131.07-93.63,0-37,32.42-69.42,90.43-69.42,28.77,0,68.05,9.13,80.38,26.94,2.29,3.2,3.66,7.31,3.66,11.42,0,12.33-10.96,21.92-22.84,21.92-3.66,0-7.76-.91-10.96-2.74-14.16-8.22-31.97-13.24-49.78-13.24-21.01,0-34.71,9.59-34.71,21.92,0,32.88,130.62,5.48,130.62,94.54,0,40.19-34.25,70.79-95.46,70.79"/>
  <path class="cls-5" d="M1300.75,116.93c0,19.18-15.53,34.71-34.71,34.71s-34.71-15.53-34.71-34.71,15.99-34.25,34.71-34.25,34.71,15.07,34.71,34.25M1266.04,398.73c-15.99,0-28.77-12.79-28.77-28.77v-168.99c0-15.53,12.79-28.32,29.69-28.32,15.53,0,28.32,12.79,28.32,28.32v168.99c0,15.99-12.79,28.77-29.23,28.77"/>
  <rect class="cls-3" x="258.34" y="337.8" width="64.59" height="64.59"/>
  <rect class="cls-1" x="64.59" y="273.22" width="64.59" height="64.59"/>
  <polygon class="cls-7" points="258.34 208.64 258.34 273.22 193.75 273.22 193.75 337.81 129.17 337.81 129.17 402.39 193.75 402.39 258.34 402.39 258.34 337.81 322.93 337.81 322.93 273.22 322.93 208.64 258.34 208.64"/>
  <polygon class="cls-8" points="193.76 208.64 129.17 208.64 129.17 273.22 129.17 337.81 193.76 337.81 193.76 273.22 258.34 273.22 258.34 208.64 193.76 208.64"/>
  <polygon class="cls-4" points="265.27 0 265.27 64.59 329.86 64.59 329.86 129.17 394.44 129.17 394.44 64.59 394.44 0 265.27 0"/>
  <polygon class="cls-6" points="129.17 144.05 129.17 79.46 64.58 79.46 0 79.46 0 144.05 0 208.64 0 273.22 0 337.81 0 402.39 64.58 402.39 129.17 402.39 129.17 337.81 64.58 337.81 64.58 273.22 129.17 273.22 129.17 208.64 64.58 208.64 64.58 144.05 129.17 144.05"/>
  <polygon class="cls-2" points="193.76 144.05 193.76 79.46 129.17 79.46 129.17 144.05 64.59 144.05 64.59 208.64 129.17 208.64 193.76 208.64 258.34 208.64 258.34 144.05 193.76 144.05"/>
  <g>
    <rect class="cls-5" x="8.45" y="560.32" width="12.87" height="76.41"/>
    <path class="cls-5" d="M47.36,561.97c1.58,1.57,2.37,3.6,2.37,6.07,0,1.24-.15,2.44-.47,3.61-.3,1.16-.91,2.91-1.8,5.25l-5.35,14.62h-8.34l4.12-15.85c-1.51-.55-2.69-1.5-3.55-2.83-.86-1.34-1.29-2.94-1.29-4.79,0-2.47.79-4.49,2.36-6.07,1.58-1.58,3.58-2.37,5.97-2.37s4.4.79,5.97,2.37"/>
    <path class="cls-5" d="M110.18,613.36h-43.15c.76,4.05,2.73,7.26,5.93,9.63,3.19,2.37,7.15,3.55,11.89,3.55,6.03,0,11.02-1.98,14.93-5.97l6.9,7.93c-2.47,2.96-5.59,5.19-9.36,6.69-3.78,1.51-8.04,2.27-12.78,2.27-6.04,0-11.36-1.2-15.96-3.6-4.6-2.4-8.15-5.75-10.66-10.04-2.5-4.29-3.76-9.15-3.76-14.57s1.22-10.18,3.66-14.47c2.43-4.29,5.82-7.63,10.14-10.04,4.33-2.4,9.2-3.61,14.63-3.61s10.15,1.18,14.36,3.55c4.22,2.37,7.52,5.7,9.89,10,2.37,4.29,3.55,9.25,3.55,14.87,0,.89-.07,2.16-.2,3.81M72.13,595.08c-2.84,2.43-4.58,5.67-5.2,9.72h31.2c-.55-3.98-2.23-7.2-5.05-9.68-2.82-2.47-6.32-3.7-10.5-3.7s-7.61,1.21-10.46,3.66M87.52,560.12h15.14l-17.92,14.11h-11.12l13.9-14.11Z"/>
    <path class="cls-5" d="M131.6,633.84c-4.53-2.39-8.06-5.74-10.61-10.04-2.53-4.29-3.81-9.15-3.81-14.57s1.28-10.27,3.81-14.52c2.55-4.25,6.06-7.58,10.56-9.99,4.49-2.4,9.63-3.6,15.4-3.6,5.42,0,10.18,1.1,14.26,3.3,4.08,2.19,7.15,5.35,9.22,9.47l-9.89,5.77c-1.58-2.54-3.55-4.45-5.92-5.72-2.37-1.27-4.96-1.91-7.78-1.91-4.81,0-8.79,1.57-11.95,4.69-3.16,3.12-4.74,7.29-4.74,12.51s1.56,9.38,4.69,12.51c3.12,3.12,7.12,4.68,12,4.68,2.82,0,5.4-.63,7.78-1.9,2.37-1.28,4.34-3.17,5.92-5.72l9.89,5.76c-2.13,4.12-5.24,7.3-9.32,9.53-4.08,2.23-8.81,3.34-14.16,3.34-5.7,0-10.82-1.2-15.35-3.6"/>
    <path class="cls-5" d="M189.37,633.84c-4.47-2.39-7.95-5.74-10.46-10.04-2.5-4.29-3.76-9.15-3.76-14.57s1.26-10.27,3.76-14.52c2.51-4.25,5.99-7.58,10.46-9.99,4.46-2.4,9.47-3.6,15.03-3.6s10.68,1.2,15.14,3.6c4.46,2.4,7.95,5.74,10.45,9.99,2.51,4.26,3.76,9.1,3.76,14.52s-1.25,10.29-3.76,14.57c-2.5,4.29-5.99,7.64-10.45,10.04-4.46,2.4-9.51,3.6-15.14,3.6s-10.57-1.2-15.03-3.6M216.14,621.7c3.1-3.16,4.64-7.31,4.64-12.46s-1.54-9.3-4.64-12.46c-3.09-3.16-7-4.74-11.73-4.74s-8.63,1.58-11.69,4.74c-3.05,3.16-4.58,7.31-4.58,12.46s1.53,9.31,4.58,12.46c3.06,3.16,6.95,4.73,11.69,4.73s8.65-1.57,11.73-4.73"/>
    <rect class="cls-5" x="245.08" y="560.32" width="12.87" height="76.41"/>
    <path class="cls-5" d="M325.29,613.36h-43.16c.76,4.05,2.74,7.26,5.93,9.63,3.19,2.37,7.15,3.55,11.89,3.55,6.03,0,11.02-1.99,14.92-5.97l6.9,7.93c-2.47,2.96-5.6,5.18-9.37,6.69-3.78,1.51-8.03,2.27-12.78,2.27-6.04,0-11.36-1.2-15.96-3.6-4.6-2.39-8.15-5.74-10.66-10.04-2.5-4.29-3.76-9.15-3.76-14.57s1.22-10.18,3.66-14.47c2.43-4.28,5.82-7.63,10.14-10.04,4.33-2.4,9.2-3.6,14.63-3.6s10.14,1.18,14.36,3.55c4.22,2.37,7.52,5.7,9.89,9.99,2.37,4.29,3.55,9.25,3.55,14.87,0,.89-.07,2.16-.2,3.81M287.24,595.08c-2.84,2.43-4.58,5.68-5.19,9.72h31.2c-.55-3.98-2.23-7.21-5.04-9.68-2.82-2.47-6.32-3.7-10.5-3.7s-7.61,1.22-10.46,3.66"/>
    <path class="cls-5" d="M418.06,560.32v76.41h-12.36v-7.11c-2.13,2.62-4.75,4.57-7.88,5.88-3.12,1.3-6.57,1.95-10.35,1.95-5.29,0-10.04-1.16-14.26-3.5-4.22-2.34-7.54-5.65-9.93-9.94-2.41-4.29-3.61-9.22-3.61-14.78s1.2-10.47,3.61-14.72c2.39-4.26,5.71-7.56,9.93-9.89,4.22-2.33,8.97-3.5,14.26-3.5,3.64,0,6.97.62,9.99,1.85,3.03,1.23,5.6,3.08,7.72,5.56v-28.22h12.87ZM397.37,624.32c2.47-1.41,4.42-3.41,5.87-6.02,1.44-2.61,2.16-5.63,2.16-9.06s-.72-6.45-2.16-9.06c-1.44-2.62-3.4-4.62-5.87-6.03-2.48-1.41-5.26-2.12-8.34-2.12s-5.87.71-8.34,2.12c-2.48,1.41-4.44,3.41-5.87,6.03-1.45,2.61-2.17,5.62-2.17,9.06s.72,6.45,2.17,9.06c1.43,2.61,3.39,4.62,5.87,6.02,2.47,1.41,5.24,2.11,8.34,2.11s5.87-.7,8.34-2.11"/>
    <path class="cls-5" d="M444.11,561.97c1.58,1.57,2.37,3.6,2.37,6.07,0,1.24-.15,2.44-.47,3.61-.31,1.16-.91,2.91-1.8,5.25l-5.35,14.62h-8.34l4.12-15.85c-1.51-.55-2.69-1.5-3.55-2.83-.86-1.34-1.29-2.94-1.29-4.79,0-2.47.79-4.49,2.36-6.07,1.58-1.58,3.58-2.37,5.97-2.37s4.4.79,5.97,2.37"/>
    <path class="cls-5" d="M458.64,570.46c-1.57-1.48-2.37-3.31-2.37-5.51s.8-4.03,2.37-5.51c1.58-1.48,3.54-2.21,5.87-2.21s4.29.71,5.87,2.11c1.57,1.41,2.37,3.18,2.37,5.31,0,2.27-.78,4.17-2.32,5.71-1.55,1.55-3.52,2.32-5.92,2.32s-4.29-.73-5.87-2.21M458.03,581.75h12.87v54.98h-12.87v-54.98Z"/>
    <path class="cls-5" d="M534.63,587.2c4.19,4.05,6.29,10.06,6.29,18.02v31.51h-12.87v-29.86c0-4.8-1.14-8.43-3.4-10.86-2.27-2.44-5.49-3.66-9.68-3.66-4.73,0-8.47,1.43-11.22,4.27-2.74,2.85-4.12,6.95-4.12,12.3v27.81h-12.87v-54.98h12.25v7.1c2.13-2.53,4.8-4.46,8.04-5.76,3.22-1.3,6.85-1.96,10.91-1.96,6.94,0,12.5,2.03,16.68,6.08"/>
    <path class="cls-5" d="M611.35,581.74v46.64c0,19.36-9.89,29.04-29.66,29.04-5.28,0-10.29-.67-15.03-2.01-4.74-1.34-8.65-3.28-11.74-5.82l5.77-9.68c2.4,1.99,5.44,3.58,9.11,4.79,3.67,1.2,7.4,1.8,11.17,1.8,6.04,0,10.47-1.37,13.29-4.12,2.81-2.75,4.22-6.94,4.22-12.57v-2.88c-2.19,2.4-4.88,4.22-8.03,5.46-3.16,1.24-6.62,1.85-10.4,1.85-5.22,0-9.94-1.11-14.16-3.34-4.22-2.23-7.55-5.38-9.99-9.43-2.44-4.05-3.66-8.68-3.66-13.9s1.22-9.83,3.66-13.84c2.43-4.02,5.77-7.13,9.99-9.32,4.22-2.19,8.94-3.3,14.16-3.3,3.98,0,7.6.66,10.86,1.96,3.26,1.3,5.99,3.3,8.19,5.97v-7.31h12.25ZM594,618.97c3.12-2.92,4.68-6.71,4.68-11.38s-1.55-8.33-4.68-11.22c-3.13-2.88-7.13-4.33-12-4.33s-8.98,1.45-12.11,4.33c-3.12,2.89-4.69,6.63-4.69,11.22s1.57,8.46,4.69,11.38c3.12,2.91,7.16,4.37,12.11,4.37s8.87-1.46,12-4.37"/>
    <path class="cls-5" d="M678.69,613.36h-43.15c.76,4.05,2.73,7.26,5.93,9.63,3.19,2.37,7.15,3.55,11.89,3.55,6.03,0,11.02-1.98,14.93-5.97l6.9,7.93c-2.47,2.96-5.59,5.19-9.36,6.69-3.78,1.51-8.04,2.27-12.78,2.27-6.04,0-11.36-1.2-15.96-3.6-4.6-2.4-8.15-5.75-10.66-10.04-2.5-4.29-3.76-9.15-3.76-14.57s1.22-10.18,3.66-14.47c2.43-4.29,5.82-7.63,10.14-10.04,4.33-2.4,9.2-3.61,14.63-3.61s10.15,1.18,14.36,3.55c4.22,2.37,7.52,5.7,9.89,10,2.37,4.29,3.55,9.25,3.55,14.87,0,.89-.07,2.16-.2,3.81M640.64,595.08c-2.84,2.43-4.58,5.67-5.2,9.72h31.2c-.55-3.98-2.23-7.2-5.05-9.68-2.82-2.47-6.32-3.7-10.5-3.7s-7.61,1.21-10.46,3.66M656.03,560.12h15.14l-17.92,14.11h-11.12l13.9-14.11Z"/>
    <path class="cls-5" d="M738.1,587.2c4.19,4.05,6.29,10.06,6.29,18.02v31.51h-12.87v-29.86c0-4.8-1.14-8.43-3.4-10.86-2.27-2.44-5.49-3.66-9.68-3.66-4.73,0-8.47,1.43-11.22,4.27-2.74,2.85-4.12,6.95-4.12,12.3v27.81h-12.87v-54.98h12.25v7.1c2.13-2.53,4.8-4.46,8.04-5.76,3.22-1.3,6.85-1.96,10.91-1.96,6.94,0,12.5,2.03,16.68,6.08"/>
    <path class="cls-5" d="M760.35,570.46c-1.57-1.48-2.37-3.31-2.37-5.51s.8-4.03,2.37-5.51c1.58-1.48,3.54-2.21,5.88-2.21s4.28.71,5.87,2.11c1.57,1.41,2.37,3.18,2.37,5.31,0,2.27-.78,4.17-2.32,5.71-1.55,1.55-3.52,2.32-5.92,2.32s-4.3-.73-5.88-2.21M759.73,581.75h12.87v54.98h-12.87v-54.98Z"/>
    <path class="cls-5" d="M839.95,613.36h-43.16c.76,4.05,2.74,7.26,5.93,9.63,3.19,2.37,7.15,3.55,11.89,3.55,6.03,0,11.02-1.99,14.92-5.97l6.9,7.93c-2.47,2.96-5.6,5.18-9.37,6.69-3.78,1.51-8.03,2.27-12.78,2.27-6.04,0-11.36-1.2-15.96-3.6-4.6-2.39-8.15-5.74-10.66-10.04-2.5-4.29-3.76-9.15-3.76-14.57s1.22-10.18,3.66-14.47c2.43-4.28,5.82-7.63,10.14-10.04,4.33-2.4,9.2-3.6,14.63-3.6s10.14,1.18,14.36,3.55c4.22,2.37,7.52,5.7,9.89,9.99,2.37,4.29,3.55,9.25,3.55,14.87,0,.89-.07,2.16-.2,3.81M801.89,595.08c-2.84,2.43-4.58,5.68-5.19,9.72h31.2c-.55-3.98-2.23-7.21-5.04-9.68-2.82-2.47-6.32-3.7-10.5-3.7s-7.61,1.22-10.46,3.66"/>
    <path class="cls-5" d="M883.29,581.12v12.25c-1.09-.2-2.09-.31-2.98-.31-5.01,0-8.93,1.46-11.74,4.37-2.82,2.92-4.22,7.13-4.22,12.62v26.67h-12.87v-54.98h12.25v8.03c3.71-5.77,10.23-8.65,19.56-8.65"/>
    <path class="cls-5" d="M893.81,570.46c-1.57-1.48-2.37-3.31-2.37-5.51s.8-4.03,2.37-5.51c1.58-1.48,3.54-2.21,5.87-2.21s4.29.71,5.87,2.11c1.57,1.41,2.37,3.18,2.37,5.31,0,2.27-.78,4.17-2.32,5.71-1.55,1.55-3.52,2.32-5.92,2.32s-4.29-.73-5.87-2.21M893.19,581.75h12.87v54.98h-12.87v-54.98Z"/>
    <path class="cls-5" d="M973.41,613.36h-43.15c.76,4.05,2.74,7.26,5.93,9.63,3.19,2.37,7.15,3.55,11.89,3.55,6.03,0,11.02-1.99,14.92-5.97l6.9,7.93c-2.47,2.96-5.6,5.18-9.37,6.69-3.78,1.51-8.03,2.27-12.78,2.27-6.04,0-11.36-1.2-15.96-3.6-4.6-2.39-8.15-5.74-10.66-10.04-2.5-4.29-3.76-9.15-3.76-14.57s1.22-10.18,3.66-14.47c2.43-4.28,5.82-7.63,10.14-10.04,4.33-2.4,9.2-3.6,14.63-3.6s10.14,1.18,14.36,3.55c4.22,2.37,7.52,5.7,9.89,9.99,2.37,4.29,3.55,9.25,3.55,14.87,0,.89-.07,2.16-.2,3.81M935.35,595.08c-2.84,2.43-4.58,5.68-5.19,9.72h31.2c-.55-3.98-2.23-7.21-5.04-9.68-2.82-2.47-6.32-3.7-10.5-3.7s-7.61,1.22-10.46,3.66"/>
    <path class="cls-5" d="M9.06,694.03c-1.57-1.48-2.37-3.31-2.37-5.51s.8-4.03,2.37-5.51c1.58-1.48,3.54-2.21,5.88-2.21s4.28.71,5.87,2.11c1.57,1.41,2.37,3.18,2.37,5.31,0,2.27-.78,4.17-2.32,5.71-1.55,1.55-3.52,2.32-5.92,2.32s-4.3-.73-5.88-2.21M8.45,705.31h12.87v54.98h-12.87v-54.98Z"/>
    <path class="cls-5" d="M85.05,710.77c4.19,4.05,6.29,10.06,6.29,18.02v31.51h-12.87v-29.86c0-4.8-1.14-8.43-3.4-10.86-2.27-2.44-5.49-3.66-9.68-3.66-4.73,0-8.47,1.43-11.22,4.27-2.74,2.85-4.12,6.95-4.12,12.3v27.81h-12.87v-54.98h12.25v7.1c2.13-2.53,4.8-4.46,8.04-5.76,3.22-1.3,6.85-1.96,10.91-1.96,6.94,0,12.5,2.03,16.68,6.08"/>
    <path class="cls-5" d="M120.89,702.43v3.3h15.14v10.29h-14.72v44.28h-12.87v-44.28h-9.06v-10.29h9.06v-3.51c0-5.9,1.71-10.55,5.15-13.95,3.43-3.4,8.27-5.1,14.51-5.1,4.94,0,8.83,1,11.64,2.98l-3.6,9.68c-2.2-1.51-4.57-2.27-7.11-2.27-5.42,0-8.13,2.96-8.13,8.86"/>
    <path class="cls-5" d="M152.5,757.41c-4.47-2.39-7.95-5.74-10.46-10.04-2.5-4.29-3.76-9.15-3.76-14.57s1.26-10.27,3.76-14.52c2.51-4.25,5.99-7.58,10.46-9.99,4.46-2.4,9.47-3.6,15.03-3.6s10.68,1.2,15.14,3.6c4.46,2.4,7.95,5.74,10.45,9.99,2.51,4.26,3.76,9.1,3.76,14.52s-1.25,10.29-3.76,14.57c-2.5,4.29-5.99,7.64-10.45,10.04-4.46,2.4-9.5,3.6-15.14,3.6s-10.57-1.2-15.03-3.6M179.27,745.27c3.1-3.16,4.64-7.31,4.64-12.46s-1.54-9.3-4.64-12.46c-3.09-3.16-7-4.74-11.73-4.74s-8.63,1.58-11.69,4.74c-3.05,3.16-4.58,7.31-4.58,12.46s1.53,9.31,4.58,12.46c3.06,3.16,6.95,4.73,11.69,4.73s8.65-1.57,11.73-4.73"/>
    <path class="cls-5" d="M240.03,704.69v12.25c-1.09-.2-2.09-.31-2.98-.31-5.01,0-8.93,1.46-11.74,4.37-2.82,2.92-4.22,7.13-4.22,12.62v26.67h-12.87v-54.98h12.25v8.03c3.71-5.77,10.23-8.65,19.56-8.65"/>
    <path class="cls-5" d="M335.8,710.72c4.05,4.01,6.08,10.04,6.08,18.07v31.51h-12.87v-29.86c0-4.8-1.06-8.43-3.19-10.86-2.13-2.44-5.19-3.65-9.17-3.65-4.32,0-7.79,1.43-10.4,4.27-2.61,2.85-3.91,6.92-3.91,12.21v27.9h-12.87v-29.86c0-4.8-1.07-8.43-3.19-10.86-2.13-2.44-5.18-3.65-9.17-3.65-4.39,0-7.87,1.41-10.45,4.21-2.57,2.82-3.86,6.9-3.86,12.26v27.9h-12.87v-54.98h12.25v7c2.05-2.47,4.63-4.35,7.72-5.66,3.08-1.31,6.52-1.96,10.3-1.96,4.12,0,7.78.77,10.97,2.32,3.19,1.55,5.71,3.83,7.56,6.85,2.28-2.88,5.19-5.13,8.75-6.74,3.57-1.62,7.52-2.42,11.85-2.42,6.94,0,12.43,2.01,16.48,6.02"/>
    <path class="cls-5" d="M396.92,710.51c4.29,3.88,6.44,9.73,6.44,17.56v32.23h-12.16v-6.69c-1.58,2.4-3.83,4.23-6.74,5.51-2.92,1.27-6.44,1.9-10.55,1.9s-7.73-.7-10.82-2.11c-3.09-1.41-5.48-3.36-7.15-5.87-1.69-2.51-2.53-5.34-2.53-8.5,0-4.94,1.84-8.9,5.51-11.89,3.67-2.98,9.46-4.48,17.35-4.48h14.22v-.82c0-3.85-1.16-6.8-3.46-8.86-2.3-2.06-5.72-3.08-10.25-3.08-3.09,0-6.12.48-9.11,1.44-2.98.96-5.51,2.3-7.56,4.01l-5.04-9.37c2.88-2.19,6.35-3.87,10.4-5.04,4.05-1.16,8.34-1.75,12.87-1.75,8.1,0,14.3,1.94,18.59,5.82M385.18,749.44c2.51-1.48,4.28-3.6,5.31-6.34v-6.38h-13.29c-7.41,0-11.12,2.44-11.12,7.31,0,2.33.93,4.19,2.78,5.56,1.85,1.37,4.42,2.06,7.72,2.06s6.08-.73,8.6-2.21"/>
    <path class="cls-5" d="M451.85,757.31c-1.51,1.24-3.35,2.17-5.51,2.78-2.17.62-4.45.93-6.85.93-6.04,0-10.71-1.57-14.01-4.73-3.3-3.16-4.94-7.75-4.94-13.8v-26.47h-9.06v-10.29h9.06v-12.56h12.87v12.56h14.73v10.29h-14.73v26.16c0,2.68.65,4.72,1.96,6.13,1.3,1.41,3.19,2.12,5.66,2.12,2.88,0,5.29-.76,7.21-2.27l3.6,9.16Z"/>
    <path class="cls-5" d="M462.04,694.03c-1.57-1.48-2.37-3.31-2.37-5.51s.8-4.03,2.37-5.51c1.58-1.48,3.54-2.21,5.88-2.21s4.28.71,5.87,2.11c1.57,1.41,2.37,3.18,2.37,5.31,0,2.27-.78,4.17-2.32,5.71-1.55,1.55-3.52,2.32-5.92,2.32s-4.3-.73-5.88-2.21M461.43,705.31h12.87v54.98h-12.87v-54.98Z"/>
    <path class="cls-5" d="M543.9,705.31v74.97h-12.87v-26.67c-4.33,4.94-10.19,7.4-17.61,7.4-5.35,0-10.15-1.16-14.37-3.5-4.22-2.34-7.51-5.63-9.88-9.88-2.37-4.26-3.56-9.2-3.56-14.83s1.21-10.47,3.61-14.72c2.39-4.26,5.69-7.55,9.88-9.89,4.19-2.33,8.96-3.5,14.32-3.5,3.78,0,7.22.66,10.34,1.96,3.13,1.3,5.75,3.26,7.88,5.87v-7.21h12.26ZM526.6,745.27c3.1-3.16,4.64-7.31,4.64-12.46s-1.54-9.3-4.64-12.46c-3.09-3.16-7-4.74-11.73-4.74s-8.63,1.58-11.69,4.74c-3.05,3.16-4.58,7.31-4.58,12.46s1.53,9.31,4.58,12.46c3.06,3.16,6.95,4.73,11.69,4.73s8.65-1.57,11.73-4.73"/>
    <path class="cls-5" d="M613,705.31v54.98h-12.26v-7c-2.06,2.47-4.63,4.38-7.72,5.72-3.09,1.34-6.42,2-9.99,2-7.34,0-13.13-2.04-17.35-6.12-4.22-4.08-6.33-10.14-6.33-18.18v-31.4h12.87v29.65c0,4.94,1.11,8.63,3.34,11.07,2.23,2.44,5.4,3.66,9.53,3.66,4.59,0,8.25-1.43,10.97-4.28,2.71-2.84,4.07-6.95,4.07-12.3v-27.8h12.87Z"/>
    <path class="cls-5" d="M680.35,736.92h-43.16c.76,4.05,2.74,7.26,5.93,9.63,3.19,2.37,7.15,3.55,11.89,3.55,6.03,0,11.02-1.99,14.92-5.97l6.9,7.93c-2.47,2.96-5.6,5.18-9.37,6.69-3.78,1.51-8.03,2.27-12.78,2.27-6.04,0-11.36-1.2-15.96-3.6-4.6-2.39-8.15-5.74-10.66-10.04-2.5-4.29-3.76-9.15-3.76-14.57s1.22-10.18,3.66-14.47c2.43-4.28,5.82-7.63,10.14-10.04,4.33-2.4,9.2-3.6,14.63-3.6s10.14,1.18,14.36,3.55c4.22,2.37,7.52,5.7,9.89,9.99,2.37,4.29,3.55,9.25,3.55,14.87,0,.89-.07,2.16-.2,3.81M642.3,718.65c-2.84,2.43-4.58,5.68-5.19,9.72h31.2c-.55-3.98-2.23-7.21-5.04-9.68-2.82-2.47-6.32-3.7-10.5-3.7s-7.61,1.22-10.46,3.66"/>
  </g>
  <g>
    <path class="cls-5" d="M1409.65,196.23c-32.02,0-58.08-26.05-58.08-58.08s26.06-58.08,58.08-58.08v12.51c-25.13,0-45.57,20.44-45.57,45.57s20.44,45.57,45.57,45.57v12.51Z"/>
    <path class="cls-5" d="M1423.39,196.24v-12.51c25.13,0,45.57-20.44,45.57-45.57s-20.44-45.57-45.57-45.57v-12.51c32.03,0,58.08,26.06,58.08,58.08s-26.05,58.08-58.08,58.08"/>
    <path class="cls-5" d="M1428.49,163c-5.29,4.36-11.51,7.24-19.04,7.24-12.44,0-21.82-7.24-21.82-18.76v-.19c0-8.26,4.46-14.11,12.63-17.83-3.16-4.46-4.55-8.54-4.55-13v-.19c0-8.91,7.15-17.09,19.69-17.09,11.05,0,18.29,7.24,18.29,16.35v.19c0,8.73-5.57,13.84-13.65,16.99l8.64,8.64c2.14-3.34,4.27-7.15,6.32-11.14l10.49,5.76c-2.51,4.55-5.3,9.38-8.54,13.74l9.57,9.57-10.49,7.33-7.52-7.61ZM1420.5,154.83l-12.44-12.63c-4.27,2.23-6.04,5.39-6.04,8.54v.18c0,4.55,3.81,7.61,9.1,7.61,3.25,0,6.41-1.39,9.38-3.71M1421.25,120.57v-.19c0-3.72-2.51-6.04-6.13-6.04-3.81,0-6.31,2.69-6.31,6.59v.19c0,2.88,1.11,5.01,3.81,8.08,5.66-2.14,8.64-4.55,8.64-8.64"/>
  </g>
</svg>